<svg width="488" height="279" viewBox="0 0 488 279" fill="none" xmlns="http://www.w3.org/2000/svg">
<rect y="0.667114" width="488" height="278" fill="#C4C4C4"/>
<g clip-path="url(#clip0_125_592)">
<path d="M265.751 138.566L236.417 118.566C236.008 118.288 235.48 118.258 235.043 118.488C234.607 118.719 234.333 119.172 234.333 119.667V159.667C234.333 160.162 234.607 160.615 235.044 160.846C235.239 160.95 235.453 161 235.667 161C235.929 161 236.192 160.922 236.417 160.768L265.751 140.768C266.115 140.52 266.333 140.108 266.333 139.667C266.333 139.226 266.115 138.814 265.751 138.566ZM237 157.143V122.191L262.633 139.667L237 157.143Z" fill="white"/>
<path d="M245 99.6671C222.944 99.6671 205 117.611 205 139.667C205 161.723 222.944 179.667 245 179.667C267.056 179.667 285 161.723 285 139.667C285 117.611 267.056 99.6671 245 99.6671ZM245 177C224.415 177 207.667 160.252 207.667 139.667C207.667 119.082 224.415 102.334 245 102.334C265.585 102.334 282.333 119.082 282.333 139.667C282.333 160.252 265.585 177 245 177Z" fill="white"/>
</g>
<path d="M192.676 207.667V194.327H191.016V200.067H183.216V194.327H181.556V207.667H183.216V201.547H191.016V207.667H192.676ZM200.094 207.907C201.674 207.907 202.974 207.387 203.934 206.427L203.214 205.447C202.454 206.227 201.334 206.667 200.234 206.667C198.154 206.667 196.874 205.147 196.754 203.327H204.574V202.947C204.574 200.047 202.854 197.767 199.934 197.767C197.174 197.767 195.174 200.027 195.174 202.827C195.174 205.847 197.234 207.907 200.094 207.907ZM203.094 202.227H196.754C196.834 200.747 197.854 199.007 199.914 199.007C202.114 199.007 203.074 200.787 203.094 202.227ZM210.264 207.667V199.327H213.084V198.007H205.964V199.327H208.764V207.667H210.264ZM228.247 207.667V198.007H220.207V207.667H221.707V199.327H226.747V207.667H228.247ZM235.602 207.907C237.182 207.907 238.482 207.387 239.442 206.427L238.722 205.447C237.962 206.227 236.842 206.667 235.742 206.667C233.662 206.667 232.382 205.147 232.262 203.327H240.082V202.947C240.082 200.047 238.362 197.767 235.442 197.767C232.682 197.767 230.682 200.027 230.682 202.827C230.682 205.847 232.742 207.907 235.602 207.907ZM238.602 202.227H232.262C232.342 200.747 233.362 199.007 235.422 199.007C237.622 199.007 238.582 200.787 238.602 202.227ZM247.272 207.907C249.812 207.907 251.572 205.947 251.572 202.827C251.572 199.687 249.812 197.767 247.272 197.767C245.912 197.767 244.712 198.467 244.012 199.447V198.007H242.512V211.347H244.012V206.207C244.792 207.287 245.952 207.907 247.272 207.907ZM246.892 206.567C245.712 206.567 244.532 205.847 244.012 205.007V200.647C244.532 199.807 245.712 199.107 246.892 199.107C248.832 199.107 249.992 200.687 249.992 202.827C249.992 204.967 248.832 206.567 246.892 206.567ZM258.317 207.907C259.897 207.907 261.197 207.387 262.157 206.427L261.437 205.447C260.677 206.227 259.557 206.667 258.457 206.667C256.377 206.667 255.097 205.147 254.977 203.327H262.797V202.947C262.797 200.047 261.077 197.767 258.157 197.767C255.397 197.767 253.397 200.027 253.397 202.827C253.397 205.847 255.457 207.907 258.317 207.907ZM261.317 202.227H254.977C255.057 200.747 256.077 199.007 258.137 199.007C260.337 199.007 261.297 200.787 261.317 202.227ZM270.647 207.667C272.427 207.667 273.467 206.607 273.467 205.047C273.467 203.947 272.687 202.927 271.707 202.687C272.527 202.427 273.267 201.647 273.267 200.487C273.267 199.027 272.247 198.007 270.547 198.007H265.227V207.667H270.647ZM270.347 206.347H266.727V203.367H270.347C271.367 203.367 271.907 204.087 271.907 204.867C271.907 205.787 271.307 206.347 270.347 206.347ZM270.287 202.047H266.727V199.327H270.287C271.207 199.327 271.727 199.867 271.727 200.707C271.727 201.467 271.227 202.047 270.287 202.047ZM280.521 207.907C283.461 207.907 285.301 205.627 285.301 202.827C285.301 200.027 283.461 197.767 280.521 197.767C277.581 197.767 275.741 200.027 275.741 202.827C275.741 205.627 277.581 207.907 280.521 207.907ZM280.521 206.567C278.461 206.567 277.301 204.807 277.301 202.827C277.301 200.867 278.461 199.107 280.521 199.107C282.581 199.107 283.721 200.867 283.721 202.827C283.721 204.807 282.581 206.567 280.521 206.567ZM286.606 210.127H288.106V207.667H295.406V210.127H296.906V206.347H295.786V198.007H289.066L288.446 202.767C288.066 205.627 287.506 206.267 286.606 206.427V210.127ZM290.386 199.327H294.286V206.347H288.546C289.246 205.787 289.706 204.767 289.946 202.947L290.386 199.327ZM306.497 207.667V201.027C306.497 198.687 304.797 197.767 302.757 197.767C301.177 197.767 299.937 198.287 298.897 199.367L299.597 200.407C300.457 199.487 301.397 199.067 302.557 199.067C303.957 199.067 304.997 199.807 304.997 201.107V202.847C304.217 201.947 303.117 201.527 301.797 201.527C300.157 201.527 298.417 202.547 298.417 204.707C298.417 206.807 300.157 207.907 301.797 207.907C303.097 207.907 304.197 207.447 304.997 206.567V207.667H306.497ZM302.337 206.827C300.937 206.827 299.957 205.947 299.957 204.727C299.957 203.487 300.937 202.607 302.337 202.607C303.397 202.607 304.417 203.007 304.997 203.807V205.627C304.417 206.427 303.397 206.827 302.337 206.827Z" fill="white"/>
<path d="M179.996 210.327H307.997V210.727H179.996V210.327Z" fill="white"/>
<defs>
<clipPath id="clip0_125_592">
<rect width="80" height="80" fill="white" transform="translate(205 99.6671)"/>
</clipPath>
</defs>
</svg>
